<?xml version="1.0" encoding="UTF-8" standalone="no"?>
<!-- Created with Inkscape (http://www.inkscape.org/) -->

<svg
   xmlns:dc="http://purl.org/dc/elements/1.1/"
   xmlns:cc="http://creativecommons.org/ns#"
   xmlns:rdf="http://www.w3.org/1999/02/22-rdf-syntax-ns#"
   xmlns:svg="http://www.w3.org/2000/svg"
   xmlns="http://www.w3.org/2000/svg"
   xmlns:sodipodi="http://sodipodi.sourceforge.net/DTD/sodipodi-0.dtd"
   xmlns:inkscape="http://www.inkscape.org/namespaces/inkscape"
   width="180.58362"
   height="225.15276"
   viewBox="0 0 47.779414 59.571668"
   version="1.1"
   id="svg3719"
   inkscape:version="0.92.3 (2405546, 2018-03-11)"
   sodipodi:docname="updated_icon.svg"
   inkscape:export-filename="C:\Users\natem\Documents\WebDesign\casual_icon.png"
   inkscape:export-xdpi="96"
   inkscape:export-ydpi="96">
  <defs
     id="defs3713">
    <inkscape:path-effect
       effect="spiro"
       id="path-effect4667"
       is_visible="true" />
    <inkscape:path-effect
       effect="spiro"
       id="path-effect4663"
       is_visible="true" />
    <inkscape:path-effect
       only_selected="false"
       apply_with_weight="true"
       apply_no_weight="true"
       helper_size="0"
       steps="2"
       weight="33.333333"
       is_visible="true"
       id="path-effect4657"
       effect="bspline" />
    <inkscape:path-effect
       only_selected="false"
       apply_with_weight="true"
       apply_no_weight="true"
       helper_size="0"
       steps="2"
       weight="33.333333"
       is_visible="true"
       id="path-effect4652"
       effect="bspline" />
    <inkscape:path-effect
       effect="bspline"
       id="path-effect4648"
       is_visible="true"
       weight="33.333333"
       steps="2"
       helper_size="0"
       apply_no_weight="true"
       apply_with_weight="true"
       only_selected="false" />
    <inkscape:path-effect
       effect="spiro"
       id="path-effect4644"
       is_visible="true" />
    <inkscape:path-effect
       effect="bspline"
       id="path-effect4637"
       is_visible="true"
       weight="33.333333"
       steps="2"
       helper_size="0"
       apply_no_weight="true"
       apply_with_weight="true"
       only_selected="false" />
    <inkscape:path-effect
       effect="bspline"
       id="path-effect4633"
       is_visible="true"
       weight="33.333333"
       steps="2"
       helper_size="0"
       apply_no_weight="true"
       apply_with_weight="true"
       only_selected="false" />
    <inkscape:path-effect
       effect="spiro"
       id="path-effect4629"
       is_visible="true" />
    <clipPath
       clipPathUnits="userSpaceOnUse"
       id="clipPath989">
      <circle
         style="display:inline;fill:none;fill-opacity:1;stroke:#ffffff;stroke-width:0.78985745;stroke-miterlimit:4;stroke-dasharray:none;stroke-opacity:1"
         id="circle991"
         cx="40.024849"
         cy="43.662704"
         r="27.000679" />
    </clipPath>
    <clipPath
       clipPathUnits="userSpaceOnUse"
       id="clipPath993">
      <circle
         style="display:inline;fill:none;fill-opacity:1;stroke:#ffffff;stroke-width:0.78985745;stroke-miterlimit:4;stroke-dasharray:none;stroke-opacity:1"
         id="circle995"
         cx="40.024849"
         cy="43.662704"
         r="27.000679" />
    </clipPath>
    <clipPath
       clipPathUnits="userSpaceOnUse"
       id="clipPath997">
      <circle
         style="display:inline;fill:none;fill-opacity:1;stroke:#ffffff;stroke-width:0.78985745;stroke-miterlimit:4;stroke-dasharray:none;stroke-opacity:1"
         id="circle999"
         cx="40.024849"
         cy="43.662704"
         r="27.000679" />
    </clipPath>
    <clipPath
       clipPathUnits="userSpaceOnUse"
       id="clipPath1001">
      <circle
         style="display:inline;fill:none;fill-opacity:1;stroke:#ffffff;stroke-width:0.78985745;stroke-miterlimit:4;stroke-dasharray:none;stroke-opacity:1"
         id="circle1003"
         cx="40.024849"
         cy="43.662704"
         r="27.000679" />
    </clipPath>
    <clipPath
       clipPathUnits="userSpaceOnUse"
       id="clipPath1025">
      <ellipse
         style="display:inline;fill:#ffffff;fill-opacity:1;stroke:none;stroke-width:0.18246277;stroke-miterlimit:4;stroke-dasharray:none;stroke-opacity:1"
         id="ellipse1027"
         cx="39.778645"
         cy="44.3731"
         rx="23.871096"
         ry="23.033762" />
    </clipPath>
    <clipPath
       clipPathUnits="userSpaceOnUse"
       id="clipPath1029">
      <ellipse
         style="display:inline;fill:#ffffff;fill-opacity:1;stroke:none;stroke-width:0.18246277;stroke-miterlimit:4;stroke-dasharray:none;stroke-opacity:1"
         id="ellipse1031"
         cx="39.778645"
         cy="44.3731"
         rx="23.871096"
         ry="23.033762"
         d="M 63.64974,44.3731 A 23.871096,23.033762 0 0 1 39.778645,67.406862 23.871096,23.033762 0 0 1 15.907549,44.3731 23.871096,23.033762 0 0 1 39.778645,21.339338 23.871096,23.033762 0 0 1 63.64974,44.3731 Z" />
    </clipPath>
    <clipPath
       clipPathUnits="userSpaceOnUse"
       id="clipPath1033">
      <ellipse
         style="display:inline;fill:#ffffff;fill-opacity:1;stroke:none;stroke-width:0.18246277;stroke-miterlimit:4;stroke-dasharray:none;stroke-opacity:1"
         id="ellipse1035"
         cx="39.778645"
         cy="44.3731"
         rx="23.871096"
         ry="23.033762"
         d="M 63.64974,44.3731 A 23.871096,23.033762 0 0 1 39.778645,67.406862 23.871096,23.033762 0 0 1 15.907549,44.3731 23.871096,23.033762 0 0 1 39.778645,21.339338 23.871096,23.033762 0 0 1 63.64974,44.3731 Z" />
    </clipPath>
    <clipPath
       clipPathUnits="userSpaceOnUse"
       id="clipPath1037">
      <ellipse
         style="display:inline;fill:#ffffff;fill-opacity:1;stroke:none;stroke-width:0.18246277;stroke-miterlimit:4;stroke-dasharray:none;stroke-opacity:1"
         id="ellipse1039"
         cx="39.778645"
         cy="44.3731"
         rx="23.871096"
         ry="23.033762"
         d="M 63.64974,44.3731 A 23.871096,23.033762 0 0 1 39.778645,67.406862 23.871096,23.033762 0 0 1 15.907549,44.3731 23.871096,23.033762 0 0 1 39.778645,21.339338 23.871096,23.033762 0 0 1 63.64974,44.3731 Z" />
    </clipPath>
  </defs>
  <sodipodi:namedview
     id="base"
     pagecolor="#ffffff"
     bordercolor="#666666"
     borderopacity="1.0"
     inkscape:pageopacity="0.0"
     inkscape:pageshadow="2"
     inkscape:zoom="3.2126218"
     inkscape:cx="30.73908"
     inkscape:cy="143.45354"
     inkscape:document-units="mm"
     inkscape:current-layer="layer1"
     showgrid="false"
     units="px"
     inkscape:window-width="2880"
     inkscape:window-height="1586"
     inkscape:window-x="2869"
     inkscape:window-y="67"
     inkscape:window-maximized="1"
     inkscape:measure-start="111.265,204.031"
     inkscape:measure-end="185.051,204.031"
     inkscape:snap-global="false"
     inkscape:pagecheckerboard="true"
     fit-margin-top="0"
     fit-margin-left="0"
     fit-margin-right="0"
     fit-margin-bottom="0" />
  <metadata
     id="metadata3716">
    <rdf:RDF>
      <cc:Work
         rdf:about="">
        <dc:format>image/svg+xml</dc:format>
        <dc:type
           rdf:resource="http://purl.org/dc/dcmitype/StillImage" />
        <dc:title></dc:title>
      </cc:Work>
    </rdf:RDF>
  </metadata>
  <g
     inkscape:label="background"
     inkscape:groupmode="layer"
     id="layer1"
     transform="translate(-15.70561,-231.06048)"
     style="display:inline">
    <ellipse
       style="fill:#ffffff;fill-opacity:1;stroke:none;stroke-width:0.18246277;stroke-miterlimit:4;stroke-dasharray:none;stroke-opacity:1"
       id="path885"
       cx="39.576706"
       cy="267.33899"
       rx="23.871096"
       ry="23.033762" />
  </g>
  <g
     inkscape:groupmode="layer"
     id="layer6"
     inkscape:label="neck"
     style="display:inline"
     transform="translate(-15.70561,-13.4355)">
    <rect
       style="fill:#d28c5d;fill-opacity:1;stroke:none;stroke-width:0.09670305;stroke-miterlimit:4;stroke-dasharray:none;stroke-opacity:0"
       id="rect6802"
       width="10.377814"
       height="6.411427"
       x="34.6115"
       y="40.977589" />
  </g>
  <g
     inkscape:groupmode="layer"
     id="layer2"
     inkscape:label="body"
     style="display:inline"
     transform="translate(-15.70561,-13.4355)">
    <path
       style="fill:none;stroke:none;stroke-width:0.19312912px;stroke-linecap:butt;stroke-linejoin:miter;stroke-opacity:1"
       d="m 7.5583373,67.965067 c 2.4131082,-7.852499 4.8261297,-15.704716 8.1996067,-19.540428 3.373477,-3.835712 7.707719,-3.655194 10.917285,-4.061382 3.209565,-0.406188 5.294668,-1.399028 7.379489,-2.391734"
       id="path4646"
       inkscape:connector-curvature="0"
       inkscape:path-effect="#path-effect4648"
       inkscape:original-d="m 7.5583373,67.965067 c 2.4131585,-7.852484 4.8261767,-15.704702 7.2390637,-23.556649 4.334031,0.180235 8.668273,0.360753 13.002202,0.541533 2.085113,-0.993047 4.170216,-1.985886 6.255115,-2.978428"
       clip-path="url(#clipPath1037)"
       transform="translate(-0.1647149,5.6003065)" />
    <path
       inkscape:original-d="M 71.846124,67.782255 C 69.432965,59.929771 67.019948,52.077552 64.60706,44.225606 c -4.334031,0.180235 -8.668274,0.360753 -13.002202,0.541532 -2.085113,-0.993046 -4.170216,-1.985885 -6.255115,-2.978427"
       inkscape:connector-curvature="0"
       id="path4655"
       d="M 71.846124,67.782255 C 69.433016,59.929755 67.019994,52.077538 63.646517,48.241826 60.27304,44.406115 55.938797,44.586633 52.729232,44.180444 49.519667,43.774256 47.434564,42.781417 45.349743,41.788711"
       style="fill:none;stroke:none;stroke-width:0.19312912px;stroke-linecap:butt;stroke-linejoin:miter;stroke-opacity:1"
       inkscape:path-effect="#path-effect4657"
       clip-path="url(#clipPath1033)"
       transform="translate(-0.1647149,5.6003065)" />
    <path
       style="fill:none;stroke:none;stroke-width:0.18097517px;stroke-linecap:butt;stroke-linejoin:miter;stroke-opacity:1"
       d="m 34.054718,41.971523 c 1.661291,1.12247 3.671621,1.720211 5.676309,1.687765 2.004687,-0.03245 3.99462,-0.694933 5.618716,-1.870577 0.951311,-0.688632 1.777966,-1.548928 2.428122,-2.526938"
       id="path4665"
       inkscape:connector-curvature="0"
       inkscape:path-effect="#path-effect4667"
       inkscape:original-d="m 34.054718,41.971523 c 3.76519,-0.06112 7.530198,-0.122055 11.295025,-0.182812 3.764826,-0.06075 1.618927,-1.684807 2.428122,-2.526938"
       clip-path="url(#clipPath1029)"
       transform="translate(-0.1647149,5.6003065)" />
    <path
       style="fill:#355c5b;fill-opacity:1;stroke:none;stroke-width:0.04954619;stroke-miterlimit:4;stroke-dasharray:none;stroke-opacity:1"
       d="m 10.749701,70.856678 c 0.03313,-0.140446 0.212861,-0.9486 0.399397,-1.795904 2.331966,-10.592554 3.881038,-16.079735 5.671769,-20.090753 0.497801,-1.115015 1.046466,-2.101542 1.650583,-2.96783 0.816469,-1.170797 1.487959,-1.86369 2.494457,-2.573966 1.356743,-0.957441 2.735182,-1.437716 5.096955,-1.775876 2.394009,-0.342774 3.000674,-0.468967 4.115163,-0.855999 1.207829,-0.419446 2.1601,-0.900165 3.572046,-1.803212 0.448073,-0.286577 0.862007,-0.54837 0.919856,-0.581762 0.09059,-0.05229 0.14424,-0.02745 0.386733,0.179079 2.869011,2.4435 6.55647,2.474482 9.409547,0.07906 0.275737,-0.231506 0.532005,-0.451282 0.569487,-0.48839 0.05555,-0.05499 0.206152,0.02157 0.814677,0.414204 1.396156,0.900829 2.52643,1.490901 3.629234,1.894686 1.108865,0.406006 1.894622,0.58261 3.739159,0.840411 1.99386,0.27867 2.882506,0.483043 3.937392,0.905539 2.121758,0.849793 3.780507,2.454337 5.146428,4.978253 1.173773,2.168867 2.375017,5.445807 3.533195,9.638385 0.888011,3.21457 1.615945,6.260537 3.237076,13.545253 l 0.09703,0.436009 -5.6882,0.03817 c -3.128506,0.021 -13.452695,0.06662 -22.942639,0.10128 -9.489941,0.03468 -20.088348,0.0801 -23.552014,0.10089 l -6.297572,0.03782 z"
       id="path4712"
       inkscape:connector-curvature="0"
       clip-path="url(#clipPath1025)"
       transform="translate(-0.1647149,5.6003065)" />
  </g>
  <g
     inkscape:groupmode="layer"
     id="layer3"
     inkscape:label="outline"
     style="display:inline"
     transform="translate(-15.70561,-13.4355)" />
  <g
     inkscape:groupmode="layer"
     id="layer7"
     inkscape:label="head"
     transform="translate(-15.70561,-13.4355)">
    <g
       id="g6891"
       transform="matrix(1.1761499,0,0,1.1141293,82.956504,-8.2504495)">
      <path
         sodipodi:nodetypes="ccsscscc"
         inkscape:connector-curvature="0"
         id="path6885"
         d="m -36.46128,25.214471 -0.401797,22.014527 c 0,0 -6.405899,-2.970012 -6.988254,-5.532374 -0.582356,-2.562363 -1.106476,-4.134721 -1.106476,-5.415902 0,-1.281181 -0.582353,-6.405906 0,-8.036499 0.582356,-1.630595 3.494132,-2.620599 5.241197,-2.911776 1.747065,-0.291178 2.327027,-0.169631 2.327027,-0.169631 z"
         style="fill:#d28c5d;fill-opacity:1;stroke:none;stroke-width:0.26458332px;stroke-linecap:butt;stroke-linejoin:miter;stroke-opacity:1" />
      <path
         style="fill:#d28c5d;fill-opacity:1;stroke:none;stroke-width:0.26458332px;stroke-linecap:butt;stroke-linejoin:miter;stroke-opacity:1"
         d="m -36.846191,25.214471 -0.01689,22.014527 c 0,0 6.522377,-2.970012 7.104732,-5.532374 0.582356,-2.562363 1.106476,-4.134721 1.106476,-5.415902 0,-1.281181 0.582353,-6.405906 0,-8.036499 -0.582356,-1.630595 -3.494132,-2.620599 -5.241197,-2.911776 -1.747065,-0.291178 -2.738865,-0.139025 -2.738865,-0.139025 z"
         id="path6887"
         inkscape:connector-curvature="0"
         sodipodi:nodetypes="ccsscscc" />
    </g>
  </g>
  <g
     inkscape:groupmode="layer"
     id="layer10"
     inkscape:label="face"
     style="display:inline"
     transform="translate(-15.70561,-13.4355)">
    <g
       inkscape:groupmode="layer"
       id="layer11"
       inkscape:label="eyebrows">
      <path
         transform="matrix(0.9999993,0.00118392,-0.00887941,-0.99996058,0,0)"
         d="m 45.996854,-26.455942 a 2.3695307,0.52710062 0 0 1 -2.298464,0.526863 2.3695307,0.52710062 0 0 1 -2.436335,-0.49526"
         sodipodi:open="true"
         sodipodi:end="3.0815998"
         sodipodi:start="0"
         sodipodi:ry="0.52710062"
         sodipodi:rx="2.3695307"
         sodipodi:cy="-26.455942"
         sodipodi:cx="43.627323"
         sodipodi:type="arc"
         id="path879"
         style="fill:#000000;fill-opacity:1;stroke:none;stroke-width:0.18471247;stroke-miterlimit:4;stroke-dasharray:none;stroke-opacity:1" />
      <path
         style="fill:#000000;fill-opacity:1;stroke:none;stroke-width:0.18471247;stroke-miterlimit:4;stroke-dasharray:none;stroke-opacity:1"
         id="path889"
         sodipodi:type="arc"
         sodipodi:cx="-35.438652"
         sodipodi:cy="-26.806662"
         sodipodi:rx="2.3695307"
         sodipodi:ry="0.52710062"
         sodipodi:start="0"
         sodipodi:end="3.0815998"
         sodipodi:open="true"
         d="m -33.069121,-26.806662 a 2.3695307,0.52710062 0 0 1 -2.298464,0.526864 2.3695307,0.52710062 0 0 1 -2.436335,-0.49526"
         transform="matrix(-0.99993877,0.01106557,-0.00100235,-0.9999995,0,0)" />
    </g>
    <g
       inkscape:groupmode="layer"
       id="layer12"
       inkscape:label="eyes"
       style="display:inline">
      <ellipse
         style="fill:#000000;fill-opacity:1;stroke:#000000;stroke-width:0.18194416;stroke-miterlimit:4;stroke-dasharray:none;stroke-opacity:1"
         id="path900"
         ry="1.4646465"
         rx="0.70415688"
         cy="30.029781"
         cx="35.488758" />
      <ellipse
         ry="0.3792069"
         rx="0.35180092"
         cy="32.483955"
         cx="-34.680485"
         id="ellipse893-6"
         style="display:inline;fill:#d28c5d;fill-opacity:1;stroke:none;stroke-width:0.02321233;stroke-miterlimit:4;stroke-dasharray:none;stroke-opacity:1"
         transform="matrix(-0.99534717,0.09635354,0.03783487,0.999284,0,0)" />
      <ellipse
         style="display:inline;fill:#000000;fill-opacity:1;stroke:#000000;stroke-width:0.18194419;stroke-miterlimit:4;stroke-dasharray:none;stroke-opacity:1"
         id="path900-1"
         ry="1.4646465"
         rx="0.70415688"
         cy="30.001614"
         cx="43.417564" />
      <ellipse
         ry="0.3792069"
         rx="0.35180092"
         cy="33.221157"
         cx="-42.618336"
         id="ellipse893-6-7"
         style="display:inline;fill:#d28c5d;fill-opacity:1;stroke:none;stroke-width:0.02321233;stroke-miterlimit:4;stroke-dasharray:none;stroke-opacity:1"
         transform="matrix(-0.99534717,0.09635354,0.03783487,0.999284,0,0)" />
      <ellipse
         style="fill:#d28c5d;fill-opacity:1;stroke:#d28c5d;stroke-width:0.1277079;stroke-miterlimit:4;stroke-dasharray:none;stroke-opacity:1"
         id="path1080"
         cx="35.431667"
         cy="32.038124"
         rx="1.540777"
         ry="0.91576815" />
      <ellipse
         style="display:inline;fill:#d28c5d;fill-opacity:1;stroke:#d28c5d;stroke-width:0.1277079;stroke-miterlimit:4;stroke-dasharray:none;stroke-opacity:1"
         id="path1080-0"
         cx="43.371338"
         cy="32.014137"
         rx="1.540777"
         ry="0.91576815" />
    </g>
    <g
       inkscape:groupmode="layer"
       id="layer13"
       inkscape:label="nose"
       style="display:inline">
      <path
         style="display:inline;fill:#ba7747;fill-opacity:1;stroke:none;stroke-width:0.09676239;stroke-miterlimit:4;stroke-dasharray:none;stroke-opacity:1"
         id="path895"
         sodipodi:type="arc"
         sodipodi:cx="39.471313"
         sodipodi:cy="32.77766"
         sodipodi:rx="1.6724702"
         sodipodi:ry="1.0921656"
         sodipodi:start="0"
         sodipodi:end="3.1415927"
         sodipodi:open="true"
         d="m 41.143784,32.77766 a 1.6724702,1.0921656 0 0 1 -0.836235,0.945844 1.6724702,1.0921656 0 0 1 -1.672471,-10e-7 1.6724702,1.0921656 0 0 1 -0.836235,-0.945843" />
    </g>
    <g
       inkscape:groupmode="layer"
       id="layer14"
       inkscape:label="mouth"
       style="display:inline">
      <g
         inkscape:groupmode="layer"
         id="layer15"
         inkscape:label="innermouth"
         style="display:inline">
        <path
           style="display:inline;fill:#38210f;fill-opacity:1;stroke:#38210f;stroke-width:0.32545763px;stroke-linecap:butt;stroke-linejoin:miter;stroke-opacity:1"
           d="m 36.634574,36.510558 h 5.809478 c 0.484638,0.03684 0.349603,0.292786 0.274032,0.614438 -0.07725,0.30169 -0.200411,0.536253 -0.347486,0.791595 -0.131394,0.228119 -0.448471,0.401289 -0.680135,0.554316 -0.612619,0.26714 -0.922255,0.281378 -1.808609,0.35696 -0.48869,0.06519 -0.977381,0.04306 -1.466071,0 -0.434958,-0.108398 -0.890146,-0.176466 -1.27425,-0.386217 -0.457395,-0.314987 -0.746054,-0.728587 -0.856348,-1.24643 -0.02531,-0.277558 -0.101287,-0.572748 0.349389,-0.684662 z"
           id="path914-3"
           inkscape:connector-curvature="0"
           sodipodi:nodetypes="cccscccccc" />
      </g>
      <g
         inkscape:groupmode="layer"
         id="layer16"
         inkscape:label="teeth"
         style="display:inline">
        <path
           style="display:inline;fill:#ffffff;stroke:#ffffff;stroke-width:0.20678504px;stroke-linecap:butt;stroke-linejoin:miter;stroke-opacity:1"
           d="m 36.87527,36.699429 c 0.13614,0.2029 0.561564,0.216674 0.670298,0.227554 0.632773,0.01371 0.863622,0.01436 1.891995,0.0044 1.273957,-0.01217 1.979529,-0.0073 2.345314,-0.07629 0.1821,-0.0596 0.393325,-0.252423 0.462746,-0.39881 -0.825854,-0.0082 -1.882763,0.0065 -2.707812,0.0062 -0.976697,-0.0099 -1.929373,-0.0036 -2.811907,-0.0037 z"
           id="path919-2"
           inkscape:connector-curvature="0"
           sodipodi:nodetypes="ccsccccc" />
        <path
           style="display:inline;fill:#ff5858;fill-opacity:1;stroke:#ff5858;stroke-width:0.20678504px;stroke-linecap:butt;stroke-linejoin:miter;stroke-opacity:1"
           d="m 37.153672,38.525697 c 0.496279,0.286026 1.031621,0.368944 1.255613,0.396898 0.47745,0.06183 1.241517,0.04631 1.769669,-0.01512 0.163495,-0.0097 1.110517,-0.148223 1.494439,-0.359961 -0.131471,-0.09641 -0.646351,-0.38238 -1.034813,-0.362105 -0.368316,-0.03494 -0.855891,0.06533 -1.24473,0.208029 -0.394994,-0.114351 -0.765095,-0.216815 -1.184984,-0.208029 -0.399151,0.02314 -0.743811,0.145625 -1.055194,0.340283 z"
           id="path922-5"
           inkscape:connector-curvature="0"
           sodipodi:nodetypes="ccccccccc" />
      </g>
      <g
         inkscape:groupmode="layer"
         id="layer17"
         inkscape:label="tongue" />
    </g>
  </g>
  <g
     inkscape:groupmode="layer"
     id="layer8"
     inkscape:label="hair"
     style="display:inline"
     transform="translate(-15.70561,-13.4355)">
    <path
       style="fill:#050505;fill-opacity:1;stroke:none;stroke-width:0.02766015;stroke-miterlimit:4;stroke-dasharray:none;stroke-opacity:0"
       d=""
       id="path6865"
       inkscape:connector-curvature="0"
       transform="scale(0.26458333)" />
    <path
       style="fill:#050505;fill-opacity:1;stroke:#000000;stroke-width:0.00896888;stroke-miterlimit:4;stroke-dasharray:none;stroke-opacity:1"
       d="m 29.837407,22.20878 v -1.89787 l 0.116802,-0.101215 c 0.468759,-0.4062 1.135801,-0.904048 1.784585,-1.33193 1.134764,-0.748392 2.321897,-1.371474 3.50995,-1.842245 0.275253,-0.109071 0.84251,-0.310307 1.114907,-0.395517 1.204555,-0.376805 2.358177,-0.585064 3.523382,-0.636063 0.350642,-0.01535 0.911443,-0.0086 1.265469,0.01523 1.799973,0.121129 3.510486,0.660994 5.12012,1.615992 1.046108,0.620656 2.049812,1.418521 3.015226,2.396865 l 0.129781,0.13152 1.09e-4,1.921471 1.05e-4,1.921471 -0.140316,-0.04135 c -2.7759,-0.817939 -5.580681,-1.287318 -8.389766,-1.404009 -0.87554,-0.03636 -1.857025,-0.03634 -2.732144,7.7e-5 -2.469339,0.102766 -4.881498,0.486391 -7.032415,1.11842 -0.326991,0.09608 -0.568688,0.174556 -0.925746,0.300561 -0.18929,0.0668 -0.34774,0.122582 -0.352108,0.123959 -0.0043,0.0013 -0.008,-0.851536 -0.008,-1.895364 z"
       id="path6917"
       inkscape:connector-curvature="0" />
    <ellipse
       style="fill:#050505;fill-opacity:1;stroke:#000000;stroke-width:0.16568615;stroke-miterlimit:4;stroke-dasharray:none;stroke-opacity:1"
       id="path6924"
       cx="20.224628"
       cy="28.235205"
       rx="1.7228986"
       ry="1.90206"
       transform="matrix(0.97707902,-0.21287695,0.36050503,0.93275727,0,0)" />
    <ellipse
       style="display:inline;fill:#050505;fill-opacity:1;stroke:#000000;stroke-width:0.12525561;stroke-miterlimit:4;stroke-dasharray:none;stroke-opacity:1"
       id="path6924-3"
       cx="20.80043"
       cy="32.081181"
       rx="1.2340333"
       ry="1.5176758"
       transform="matrix(0.87213414,-0.48926684,0.38996064,0.92083153,0,0)" />
    <ellipse
       style="display:inline;fill:#050505;fill-opacity:1;stroke:#000000;stroke-width:0.14150058;stroke-miterlimit:4;stroke-dasharray:none;stroke-opacity:1"
       id="path6924-1"
       cx="22.87999"
       cy="31.537077"
       rx="1.4043803"
       ry="1.7019362"
       transform="matrix(0.87709695,-0.48031338,0.39799596,0.91738717,0,0)" />
    <ellipse
       style="display:inline;fill:#050505;fill-opacity:1;stroke:#000000;stroke-width:0.12525561;stroke-miterlimit:4;stroke-dasharray:none;stroke-opacity:1"
       id="path6924-9"
       cx="25.296898"
       cy="31.57543"
       rx="1.2340333"
       ry="1.5176758"
       transform="matrix(0.87213414,-0.48926684,0.38996064,0.92083153,0,0)" />
    <ellipse
       style="display:inline;fill:#050505;fill-opacity:1;stroke:#000000;stroke-width:0.10367935;stroke-miterlimit:4;stroke-dasharray:none;stroke-opacity:1"
       id="path6924-8"
       cx="26.372137"
       cy="30.982866"
       rx="1.0423081"
       ry="1.2311188"
       transform="matrix(0.88535076,-0.46492368,0.41219346,0.91109634,0,0)" />
    <ellipse
       style="display:inline;fill:#050505;fill-opacity:1;stroke:#000000;stroke-width:0.12525561;stroke-miterlimit:4;stroke-dasharray:none;stroke-opacity:1"
       id="path6924-30"
       cx="29.148659"
       cy="32.180492"
       rx="1.2340333"
       ry="1.5176758"
       transform="matrix(0.87213414,-0.48926684,0.38996064,0.92083153,0,0)" />
    <ellipse
       style="display:inline;fill:#050505;fill-opacity:1;stroke:#000000;stroke-width:0.13969797;stroke-miterlimit:4;stroke-dasharray:none;stroke-opacity:1"
       id="path6924-6"
       cx="43.06641"
       cy="2.2356088"
       rx="1.4226229"
       ry="1.6375777"
       transform="matrix(0.95309671,0.30266593,-0.46578117,0.88489994,0,0)" />
    <ellipse
       style="display:inline;fill:#050505;fill-opacity:1;stroke:#000000;stroke-width:0.11652386;stroke-miterlimit:4;stroke-dasharray:none;stroke-opacity:1"
       id="path6924-89"
       cx="43.473995"
       cy="-4.7742729"
       rx="1.231585"
       ry="1.3160636"
       transform="matrix(0.89695186,0.44212821,-0.68515093,0.72840113,0,0)" />
    <ellipse
       style="display:inline;fill:#050505;fill-opacity:1;stroke:#000000;stroke-width:0.12525561;stroke-miterlimit:4;stroke-dasharray:none;stroke-opacity:1"
       id="path6924-7"
       cx="35.042747"
       cy="36.04034"
       rx="1.2340333"
       ry="1.5176758"
       transform="matrix(0.87213414,-0.48926684,0.38996064,0.92083153,0,0)" />
    <ellipse
       style="display:inline;fill:#050505;fill-opacity:1;stroke:#000000;stroke-width:0.12488491;stroke-miterlimit:4;stroke-dasharray:none;stroke-opacity:1"
       id="path6924-75"
       cx="48.124237"
       cy="-14.293109"
       rx="1.2457219"
       ry="1.49455"
       transform="matrix(0.79441378,0.60737694,-0.59106604,0.80662317,0,0)" />
    <ellipse
       style="display:inline;fill:#050505;fill-opacity:1;stroke:#000000;stroke-width:0.12488789;stroke-miterlimit:4;stroke-dasharray:none;stroke-opacity:1"
       id="path6924-15"
       cx="46.508686"
       cy="-24.251545"
       rx="1.2659864"
       ry="1.4706969"
       transform="matrix(0.64418744,0.76486766,-0.75012054,0.66130112,0,0)" />
    <ellipse
       style="display:inline;fill:#050505;fill-opacity:1;stroke:#000000;stroke-width:0.1437978;stroke-miterlimit:4;stroke-dasharray:none;stroke-opacity:1"
       id="path6924-36"
       cx="54.689674"
       cy="-27.959848"
       rx="1.4546337"
       ry="1.6969241"
       transform="matrix(0.59009684,0.80733247,-0.6058692,0.79556428,0,0)" />
    <path
       style="fill:#6a3d1d;fill-opacity:1;stroke:none;stroke-width:0.17783092px;stroke-linecap:butt;stroke-linejoin:miter;stroke-opacity:1"
       d="m 29.841395,24.088936 -0.04778,1.179311 -0.02707,1.136958 0.02782,3.63855 c 0,0 0.51896,-3.114928 1.719641,-3.719632 1.200681,-0.604702 -0.164061,-2.705389 -0.164061,-2.705389 z"
       id="path7019"
       inkscape:connector-curvature="0"
       sodipodi:nodetypes="ccccscc" />
    <path
       sodipodi:nodetypes="ccccscc"
       inkscape:connector-curvature="0"
       id="path7021"
       d="m 49.417843,24.006485 0.131757,1.151318 0.0071,1.516866 -0.135792,3.294633 c 0,0 -0.47497,-3.122926 -1.675652,-3.72763 -1.20068,-0.604702 0.140067,-2.653401 0.140067,-2.653401 z"
       style="fill:#6a3d1d;fill-opacity:1;stroke:none;stroke-width:0.17783092px;stroke-linecap:butt;stroke-linejoin:miter;stroke-opacity:1" />
  </g>
  <g
     inkscape:groupmode="layer"
     id="layer9"
     inkscape:label="ears"
     style="display:inline"
     transform="translate(-15.70561,-13.4355)">
    <ellipse
       style="fill:#d28c5d;fill-opacity:1;stroke:none;stroke-width:0.1536468;stroke-miterlimit:4;stroke-dasharray:none;stroke-opacity:0"
       id="path6807"
       cx="24.403223"
       cy="39.083355"
       rx="1.1480206"
       ry="3.0537002"
       transform="matrix(0.96700728,-0.25474874,0.159059,0.98726908,0,0)" />
    <ellipse
       transform="matrix(-0.96700728,-0.25474874,-0.159059,0.98726908,0,0)"
       ry="3.0537002"
       rx="1.1480206"
       cy="18.753061"
       cx="-54.409451"
       id="ellipse6809"
       style="fill:#d28c5d;fill-opacity:1;stroke:none;stroke-width:0.1536468;stroke-miterlimit:4;stroke-dasharray:none;stroke-opacity:0" />
  </g>
</svg>
